<?xml version="1.0" encoding="utf-8" standalone="yes"?>
<!DOCTYPE svg PUBLIC "-//W3C//DTD SVG 1.1//EN" "http://www.w3.org/Graphics/SVG/1.1/DTD/svg11.dtd">
<svg width="804" height="804" viewBox="0 0 804 804" style="fill:none;stroke:none;fill-rule:evenodd;clip-rule:evenodd;stroke-linecap:round;stroke-linejoin:round;stroke-miterlimit:1.5;" version="1.1" xmlns="http://www.w3.org/2000/svg" xmlns:xlink="http://www.w3.org/1999/xlink"><style class="text-font-style fontImports" data-font-family="Roboto">@import url('https://fonts.googleapis.com/css2?family=Roboto:wght@400;700&amp;display=block');</style><g id="items" style="isolation: isolate"><g id="blend" style="mix-blend-mode: normal"><g id="g-root-cp_6_g-6_1q9gg1k16aq6d-fill" data-item-order="-458632" transform="translate(254.41900634765625, 458.5)"></g><g id="g-root-cp_5_g-5_18iswmw16apds-fill" data-item-order="-458626" transform="translate(261.2619934082031, 440)"></g><g id="g-root-cp_4_g-4_v7yvco16ansz-fill" data-item-order="-458620" transform="translate(265.0719909667969, 422)"></g><g id="g-root-cp_3_g-3_hwiczc16apdy-fill" data-item-order="-458614" transform="translate(265.0719909667969, 338)"></g><g id="g-root-cp_2_g-2_4lobp416ant5-fill" data-item-order="-458608" transform="translate(261.406005859375, 254)"></g><g id="g-root-cp_1_g-1_1qbbvaw16ap70-fill" data-item-order="-458602" transform="translate(254.65499877929688, 170)"></g><g id="g-root-cp_0_g-0_1lvid6g16apzb-fill" data-item-order="-458596" transform="translate(14, 287)"></g><g id="g-root-tx_unveilin_1hgbc5416anlt-fill" data-item-order="0" transform="translate(122, 98)"><g id="tx_unveilin_1hgbc5416anlt-fill" stroke="none" fill="#484848"><g><text style="font: bold 25px Roboto, sans-serif; white-space: pre;" font-weight="bold" font-size="25px" font-family="Roboto, sans-serif"><tspan x="15.58" y="43" dominant-baseline="ideographic">Unveiling the Dimensions of Business Planning</tspan></text></g></g></g><g id="g-root-ic_2_qun9ko16ex39-fill" data-item-order="0" transform="translate(458, 185)"></g><g id="g-root-tx_targetma_1463ry016evic-fill" data-item-order="0" transform="translate(518, 191)"><g id="tx_targetma_1463ry016evic-fill" stroke="none" fill="#1eabda"><g><text style="font: 15px Roboto, sans-serif; white-space: pre;" font-size="15px" font-family="Roboto, sans-serif"><tspan x="12" y="27.78" dominant-baseline="ideographic">Target Market/Sub </tspan><tspan x="12" y="45.78" dominant-baseline="ideographic">Sectors</tspan></text></g></g></g><g id="g-root-ic_char_zjf1vc16exvn-fill" data-item-order="0" transform="translate(458, 269)"></g><g id="g-root-tx_customer_13z8jzs16ex3e-fill" data-item-order="0" transform="translate(518, 281)"><g id="tx_customer_13z8jzs16ex3e-fill" stroke="none" fill="#3cc583"><g><text style="font: 15px Roboto, sans-serif; white-space: pre;" font-size="15px" font-family="Roboto, sans-serif"><tspan x="12" y="30.78" dominant-baseline="ideographic">Customer Profiling</tspan></text></g></g></g><g id="g-root-ic_bar_90vcqg16dhqh-fill" data-item-order="0" transform="translate(458, 353)"></g><g id="g-root-tx_marketsi_mbpe0o16djbc-fill" data-item-order="0" transform="translate(518, 365)"><g id="tx_marketsi_mbpe0o16djbc-fill" stroke="none" fill="#92bd39"><g><text style="font: 15px Roboto, sans-serif; white-space: pre;" font-size="15px" font-family="Roboto, sans-serif"><tspan x="12" y="30.78" dominant-baseline="ideographic">Market Size</tspan></text></g></g></g><g id="g-root-tx_business_1cy00u015tszy-fill" data-item-order="0" transform="translate(68, 395)"><g id="tx_business_1cy00u015tszy-fill" stroke="none" fill="#484848"><g><text style="font: bold 20px Roboto, sans-serif; white-space: pre;" font-weight="bold" font-size="20px" font-family="Roboto, sans-serif"><tspan x="15.93" y="33.89" dominant-baseline="ideographic">Business Plan </tspan><tspan x="20.31" y="57.89" dominant-baseline="ideographic">Development</tspan></text></g></g></g><g id="g-root-ic_grow_93zq6016c4r3-fill" data-item-order="0" transform="translate(458, 437)"></g><g id="g-root-tx_growthdr_mfg8jc16c366-fill" data-item-order="0" transform="translate(518, 449)"><g id="tx_growthdr_mfg8jc16c366-fill" stroke="none" fill="#e0cb15"><g><text style="font: 15px Roboto, sans-serif; white-space: pre;" font-size="15px" font-family="Roboto, sans-serif"><tspan x="12" y="30.78" dominant-baseline="ideographic">Growth Drivers</tspan></text></g></g></g><g id="g-root-ic_targ_1cwqzi016c3rh-fill" data-item-order="0" transform="translate(458, 521)"></g><g id="g-root-tx_keyplaye_23z2016c4qs-fill" data-item-order="0" transform="translate(518, 533)"><g id="tx_keyplaye_23z2016c4qs-fill" stroke="none" fill="#de8431"><g><text style="font: 15px Roboto, sans-serif; white-space: pre;" font-size="15px" font-family="Roboto, sans-serif"><tspan x="12" y="30.78" dominant-baseline="ideographic">Key Players</tspan></text></g></g></g><g id="g-root-ic_2_qu0shk16anlv-fill" data-item-order="0" transform="translate(458, 605)"></g><g id="g-root-tx_globalan_144utrs16ap6q-fill" data-item-order="0" transform="translate(518, 617)"><g id="tx_globalan_144utrs16ap6q-fill" stroke="none" fill="#e55753"><g><text style="font: 15px Roboto, sans-serif; white-space: pre;" font-size="15px" font-family="Roboto, sans-serif"><tspan x="12" y="30.78" dominant-baseline="ideographic">Global and Local Trends</tspan></text></g></g></g><g id="g-root-cp_6_g-6_1q9gg1k16aq6d-stroke" data-item-order="-458632" transform="translate(254.41900634765625, 458.5)"><g id="cp_6_g-6_1q9gg1k16aq6d-stroke" fill="none" stroke-linecap="round" stroke-linejoin="round" stroke-miterlimit="4" stroke="#7f64ea" stroke-width="2"><g><path d="M 474.2397 141.4493L 186.1974 140.9977L 74.199 10L 14.9292 10C 13.4984 14.1062 11.8507 18.1107 10 22L 71.2834 22L 189.2837 219.5L 473.9686 219.5C 471.3065 217.7285 468.9113 215.5956 466.7963 213.1103C 463.3731 209.0876 460.8343 204.3087 459.1016 198.8937L 459.0937 198.869L 459.0859 198.8441C 457.3849 193.3646 456.5811 187.3234 456.5811 180.787L 456.5811 180.6826C 456.5811 171.9455 457.9991 164.0902 461.0615 157.2955L 461.0675 157.282L 461.0736 157.2686C 464.1028 150.6348 468.4755 145.284 474.2397 141.4493Z"></path></g></g><g id="cp_6_g-6_1q9gg1k16aq6d-stroke" fill="none" stroke-linecap="round" stroke-linejoin="round" stroke-miterlimit="4" stroke="#7f64ea" stroke-width="2"><g><path d="M 495.432555 219.5C 490.303855 219.5 485.712255 218.6304 481.657755 216.8913C 477.637955 215.1174 474.207355 212.5609 471.365755 209.2217C 468.524155 205.8826 466.340955 201.8304 464.816255 197.0652C 463.326155 192.2652 462.581055 186.8391 462.581055 180.787L 462.581055 180.6826C 462.581055 172.5783 463.897855 165.6043 466.531555 159.7609C 469.199855 153.9174 472.977055 149.4131 477.863255 146.2478C 482.784055 143.0826 488.588455 141.5 495.276655 141.5C 500.439955 141.5 505.100855 142.4218 509.259255 144.2652C 513.417655 146.1087 516.831055 148.613 519.499355 151.7783C 522.167755 154.9435 523.848355 158.5261 524.541455 162.5261L 524.645355 162.9435L 505.932555 162.9435L 505.776655 162.5782C 505.222155 161.3261 504.459755 160.2478 503.489455 159.3435C 502.519255 158.4043 501.358255 157.6565 500.006755 157.1C 498.655255 156.5435 497.078555 156.2652 495.276655 156.2652C 492.157755 156.2652 489.576155 157.1696 487.531555 158.9783C 485.486955 160.787 483.927555 163.2565 482.853355 166.387C 481.779055 169.4826 481.120655 173.0304 480.878155 177.0304C 480.843455 177.6217 480.808755 178.2304 480.774155 178.8565L 480.774155 180.5782L 481.137955 180.5782C 482.108255 178.213 483.529055 176.1261 485.400355 174.3174C 487.306355 172.4739 489.610755 171.0478 492.313755 170.0391C 495.016655 168.9956 498.048855 168.4739 501.410255 168.4739C 506.296455 168.4739 510.541455 169.5174 514.145355 171.6043C 517.749355 173.6913 520.556355 176.5609 522.566255 180.213C 524.576155 183.8304 525.581055 187.9696 525.581055 192.6304L 525.581055 192.7348C 525.581055 197.9869 524.264255 202.6304 521.630555 206.6652C 519.031555 210.6652 515.462255 213.8131 510.922655 216.1087C 506.382955 218.3696 501.219655 219.5 495.432555 219.5ZM 484.776655 199.1522C 483.737055 197.413 483.217155 195.4652 483.217155 193.3087L 483.217155 193.2565C 483.217155 191.0304 483.754255 189.0652 484.828555 187.3609C 485.902855 185.6565 487.340955 184.3348 489.142955 183.3957C 490.979555 182.4217 493.041455 181.9348 495.328555 181.9348C 497.546355 181.9348 499.538955 182.4217 501.306255 183.3957C 503.108255 184.3348 504.529055 185.6739 505.568655 187.4131C 506.642955 189.1174 507.180055 191.1 507.180055 193.3609L 507.180055 193.4652C 507.180055 195.5869 506.625655 197.5 505.516755 199.2043C 504.442455 200.9087 503.004355 202.2652 501.202355 203.2739C 499.400355 204.2478 497.390455 204.7348 495.172655 204.7348C 492.954755 204.7348 490.927555 204.2304 489.090955 203.2217C 487.288955 202.213 485.850855 200.8565 484.776655 199.1522ZM 480.774155 178.8565C 480.774155 179.4304 480.774155 180.0043 480.774155 180.5782"></path></g></g></g><g id="g-root-cp_5_g-5_18iswmw16apds-stroke" data-item-order="-458626" transform="translate(261.2619934082031, 440)"><g id="cp_5_g-5_18iswmw16apds-stroke" fill="none" stroke-linecap="round" stroke-linejoin="round" stroke-miterlimit="4" stroke="#7f64ea" stroke-width="2"><g><path d="M 455.2953 76L 179.8815 76L 73.8813 10L 12.9072 10C 12.1574 14.248 11.1841 18.4188 10 22.5L 70.1197 22.5L 182.1219 153.5023L 464.3578 153.9445C 461.1259 151.8481 458.3604 149.28 456.1357 146.2141C 452.9405 141.8109 451.5936 136.8011 451.2377 131.3382L 451.8257 124.1062L 455.2953 76Z"></path></g></g><g id="cp_5_g-5_18iswmw16apds-stroke" fill="none" stroke-linecap="round" stroke-linejoin="round" stroke-miterlimit="4" stroke="#7f64ea" stroke-width="2"><g><path d="M 486.839381 154C 480.918481 154 475.759781 152.9911 471.363381 150.9734C 466.966981 148.9204 464.010181 146.1593 461.492881 142.6903C 458.975581 139.2213 457.575081 135.3097 457.291481 130.9557L 457.238281 130.1062L 474.501181 130.1062L 474.607481 130.4779C 475.032981 132.0708 475.795281 133.5044 476.894381 134.7787C 478.028881 136.0531 479.429381 137.0796 481.095781 137.8584C 482.797581 138.6018 484.712081 138.9734 486.839381 138.9734C 489.285781 138.9734 491.448581 138.4779 493.327681 137.4867C 495.206781 136.4602 496.678081 135.0443 497.741781 133.239C 498.805381 131.4336 499.337181 129.3628 499.337181 127.0266L 499.337181 126.9203C 499.337181 124.5841 498.805381 122.531 497.741781 120.761C 496.678081 118.9557 495.206781 117.5575 493.327681 116.5664C 491.448581 115.5752 489.285781 115.0797 486.839381 115.0797C 485.243981 115.0797 483.754881 115.3097 482.372181 115.7699C 480.989381 116.1947 479.748481 116.7965 478.649381 117.5752C 477.833881 118.1416 477.107081 118.7788 476.468881 119.4867C 475.866181 120.1947 475.352081 120.9381 474.926581 121.7168L 458.014681 121.7168L 461.311981 76L 512.951881 76L 512.951881 91.0266L 476.681681 91.0266L 475.192481 110.354L 475.564781 110.354C 477.053881 107.7699 479.287581 105.7168 482.265781 104.1947C 485.279381 102.6372 488.789481 101.8584 492.795881 101.8584C 497.653181 101.8584 501.943181 102.9204 505.665881 105.0443C 509.424081 107.1681 512.366881 110.0885 514.494181 113.8053C 516.656881 117.5221 517.738281 121.7699 517.738281 126.5487L 517.738281 126.6549C 517.738281 132.1062 516.444181 136.885 513.855981 140.9911C 511.267781 145.0973 507.651381 148.3009 503.006881 150.6018C 498.362281 152.8673 492.973081 154 486.839381 154Z"></path></g></g></g><g id="g-root-cp_4_g-4_v7yvco16ansz-stroke" data-item-order="-458620" transform="translate(265.0719909667969, 422)"><g id="cp_4_g-4_v7yvco16ansz-stroke" fill="none" stroke-linecap="round" stroke-linejoin="round" stroke-miterlimit="4" stroke="#7f64ea" stroke-width="2"><g><path d="M 472.5001 10L 10.8916 10C 10.7922 14.053 10.4918 18.0562 10 22L 71.7865 22L 177.7867 88L 482.3287 88L 482.3287 80.7027L 443.9276 80.7027L 443.9276 56.8838L 444.7776 55.4618C 446.7299 52.1961 448.7004 48.9485 450.689 45.719L 450.6938 45.7111L 450.6987 45.7033C 452.701 42.4737 454.6853 39.2441 456.6517 36.0147L 462.5761 26.285C 464.5534 23.0376 466.5309 19.8081 468.5084 16.5966C 469.8472 14.3977 471.1778 12.1988 472.5001 10Z"></path></g></g><g id="cp_4_g-4_v7yvco16ansz-stroke" fill="none" stroke-linecap="round" stroke-linejoin="round" stroke-miterlimit="4" stroke="#7f64ea" stroke-width="2"><g><path d="M 455.798334 48.8649C 453.823534 52.0721 451.866634 55.2973 449.927734 58.5405L 449.927734 74.7027L 488.328834 74.7027L 488.328834 88L 507.071634 88L 507.071634 74.7027L 514.927734 74.7027L 514.927734 59.2433L 507.071634 59.2433L 507.071634 10L 479.496134 10C 477.557234 13.2432 475.600334 16.4865 473.625534 19.7297C 471.650634 22.9369 469.675834 26.1622 467.701034 29.4054L 461.776634 39.1351C 459.801834 42.3784 457.809034 45.6216 455.798334 48.8649ZM 468.927734 59.2703L 491.332934 59.2703L 491.332934 23L 490.902034 23L 486.485634 30.1351C 485.049434 32.5135 483.595234 34.8919 482.123134 37.2703C 480.686834 39.6486 479.214734 42.045 477.706634 44.4594L 473.290234 51.5946C 471.854034 53.973 470.399834 56.3513 468.927734 58.7297L 468.927734 59.2703Z"></path></g></g></g><g id="g-root-cp_3_g-3_hwiczc16apdy-stroke" data-item-order="-458614" transform="translate(265.0719909667969, 338)"><g id="cp_3_g-3_hwiczc16apdy-stroke" fill="none" stroke-linecap="round" stroke-linejoin="round" stroke-miterlimit="4" stroke="#7f64ea" stroke-width="2"><g><path d="M 178.2829 10L 71.7831 76L 10 76C 10.4918 79.9438 10.7922 83.947 10.8916 88L 459.6935 88C 456.6041 86.0542 453.9284 83.6638 451.7304 80.8047C 448.37 76.4334 446.4776 71.3603 446.0016 65.7603L 445.9996 65.7374L 445.4461 58.5739L 467.1009 58.5739L 467.1009 38.9565L 447.2636 38.9565L 447.7786 31.7785L 447.78 31.7603C 448.2079 26.2658 449.95 21.2735 453.1231 16.9816C 455.1496 14.218 457.6198 11.8961 460.478 10L 178.2829 10Z"></path></g></g><g id="cp_3_g-3_hwiczc16apdy-stroke" fill="none" stroke-linecap="round" stroke-linejoin="round" stroke-miterlimit="4" stroke="#7f64ea" stroke-width="2"><g><path d="M 482.796734 88C 476.822034 88 471.598634 87.0435 467.126434 85.1304C 462.654134 83.2174 459.107734 80.5565 456.487334 77.1478C 453.866834 73.7391 452.364534 69.7739 451.980134 65.2522L 451.927734 64.5739L 470.270934 64.5739L 470.375734 65.2C 470.690234 67.3217 471.930534 69.1478 474.096834 70.6783C 476.298034 72.1739 479.197934 72.9217 482.796734 72.9217C 485.172534 72.9217 487.216534 72.5391 488.928634 71.7739C 490.675534 71.0087 492.020734 69.9652 492.964134 68.6435C 493.907434 67.287 494.379134 65.7391 494.379134 64L 494.379134 63.8956C 494.379134 60.8348 493.243634 58.5043 490.972534 56.9043C 488.701434 55.3043 485.469634 54.5043 481.276834 54.5043L 473.101034 54.5043L 473.101034 41.513L 481.172034 41.513C 483.652734 41.513 485.766534 41.1478 487.513534 40.4174C 489.295434 39.687 490.658034 38.6609 491.601434 37.3391C 492.579734 36.0174 493.068934 34.4869 493.068934 32.7478L 493.068934 32.6435C 493.068934 30.9043 492.649634 29.4087 491.811134 28.1565C 491.007534 26.9044 489.819534 25.9478 488.247234 25.287C 486.709934 24.6261 484.858134 24.2957 482.691934 24.2957C 480.490734 24.2957 478.551534 24.6435 476.874434 25.3391C 475.232334 26 473.922134 26.9565 472.943834 28.2087C 472.000434 29.4261 471.423934 30.8522 471.214334 32.487L 471.161834 32.9565L 453.709634 32.9565L 453.762034 32.2261C 454.111434 27.7391 455.509034 23.8435 457.954734 20.5391C 460.400534 17.2 463.719834 14.6087 467.912534 12.7652C 472.140234 10.9217 477.066634 10 482.691934 10C 488.421934 10 493.400834 10.8348 497.628434 12.5043C 501.891134 14.1391 505.175334 16.4522 507.481334 19.4435C 509.787434 22.4348 510.940434 25.9478 510.940434 29.9826L 510.940434 30.087C 510.940434 33.2522 510.224134 36.0174 508.791634 38.3826C 507.394034 40.713 505.507334 42.6261 503.131434 44.1217C 500.755634 45.6174 498.152634 46.6609 495.322534 47.2522L 495.322534 47.6174C 500.982734 48.1739 505.489834 49.9652 508.844034 52.9913C 512.233134 56.0174 513.927734 60.0174 513.927734 64.9913L 513.927734 65.0957C 513.927734 69.7217 512.652434 73.7565 510.101834 77.2C 507.551334 80.6087 503.952534 83.2696 499.305634 85.1826C 494.658634 87.0609 489.155634 88 482.796734 88Z"></path></g></g></g><g id="g-root-cp_2_g-2_4lobp416ant5-stroke" data-item-order="-458608" transform="translate(261.406005859375, 254)"><g id="cp_2_g-2_4lobp416ant5-stroke" fill="none" stroke-linecap="round" stroke-linejoin="round" stroke-miterlimit="4" stroke="#7f64ea" stroke-width="2"><g><path d="M 464.7458 10L 183.9683 10L 69.9681 142L 10 142C 11.1193 145.9217 12.0441 149.9254 12.7633 154L 73.7408 154L 180.2407 88L 451.7541 88L 451.7541 71.9389L 481.2071 47.0716L 481.2071 41.8584L 450.5937 41.8584L 450.5937 35.3805C 450.5937 29.2787 452.2133 23.6705 455.5651 18.7713C 457.9934 15.2221 461.0814 12.304 464.7458 10Z"></path></g></g><g id="cp_2_g-2_4lobp416ant5-stroke" fill="none" stroke-linecap="round" stroke-linejoin="round" stroke-miterlimit="4" stroke="#7f64ea" stroke-width="2"><g><path d="M 457.75415 88L 457.75415 74.7257L 485.99125 50.885C 489.34365 48.0531 491.86705 45.6991 493.56165 43.823C 495.25625 41.9115 496.39825 40.2124 496.98765 38.7257C 497.61395 37.2389 497.92705 35.7168 497.92705 34.1593L 497.92705 34.0531C 497.92705 32.2124 497.46655 30.6018 496.54555 29.2212C 495.66145 27.8053 494.42735 26.708 492.84335 25.9292C 491.25925 25.115 489.41725 24.708 487.31745 24.708C 484.92295 24.708 482.82315 25.1681 481.01805 26.0885C 479.24975 26.9734 477.86825 28.2124 476.87355 29.8053C 475.87895 31.3982 475.32635 33.2212 475.21585 35.2743L 475.16055 35.8584L 456.59375 35.8584L 456.59375 35.3805C 456.59375 30.3894 457.90155 25.9823 460.51705 22.1593C 463.13265 18.3363 466.74295 15.3628 471.34775 13.2389C 475.98945 11.0796 481.29425 10 487.26225 10C 493.34065 10 498.64545 10.9735 503.17665 12.9204C 507.70785 14.8319 511.22595 17.5044 513.73105 20.938C 516.27295 24.3363 517.54385 28.3186 517.54385 32.885L 517.54385 32.9911C 517.54385 36.2478 516.95445 39.2035 515.77555 41.8584C 514.59675 44.4779 512.68105 47.1858 510.02865 49.9823C 507.37625 52.7434 503.83975 55.9646 499.41905 59.646L 483.16825 72.9734L 518.59375 72.9734L 518.59375 88L 457.75415 88Z"></path></g></g></g><g id="g-root-cp_1_g-1_1qbbvaw16ap70-stroke" data-item-order="-458602" transform="translate(254.65499877929688, 170)"><g id="cp_1_g-1_1qbbvaw16ap70-stroke" fill="none" stroke-linecap="round" stroke-linejoin="round" stroke-miterlimit="4" stroke="#7f64ea" stroke-width="2"><g><path d="M 483.3276 10L 191.0359 10L 71.0357 208L 10 208C 11.8292 211.8903 13.4556 215.8949 14.8656 220L 73.9729 220L 187.9731 88L 487.9244 88L 487.9244 38.5068L 468.3445 51.8233L 468.3445 20.3691L 483.3276 10Z"></path></g></g><g id="cp_1_g-1_1qbbvaw16ap70-stroke" fill="none" stroke-linecap="round" stroke-linejoin="round" stroke-miterlimit="4" stroke="#7f64ea" stroke-width="2"><g><path d="M 492.924527 88L 492.924527 27.4595L 492.498927 27.4595L 473.344727 40.4865L 473.344727 23.5135L 492.871327 10L 512.344727 10L 512.344727 88L 492.924527 88Z"></path></g></g></g><g id="g-root-cp_0_g-0_1lvid6g16apzb-stroke" data-item-order="-458596" transform="translate(14, 287)"><g id="cp_0_g-0_1lvid6g16apzb-stroke" fill="none" stroke-linecap="round" stroke-linejoin="round" stroke-miterlimit="4" stroke="#7f64ea" stroke-width="2"><g><path d="M 261 199C 239.7355 243.365 194.4196 274 141.9513 274C 69.0766 274 10 214.9016 10 142C 10 69.0984 69.0766 10 141.9513 10C 194.4196 10 239.7355 40.635 261 85L 247.5368 85C 227.2562 47.484 187.5787 22 141.9513 22C 75.7016 22 21.9956 75.7258 21.9956 142C 21.9956 208.2742 75.7016 262 141.9513 262C 187.5787 262 227.2562 236.516 247.5368 199L 261 199Z"></path></g></g></g><g id="g-root-tx_unveilin_1hgbc5416anlt-stroke" data-item-order="0" transform="translate(122, 98)"></g><g id="g-root-ic_2_qun9ko16ex39-stroke" data-item-order="0" transform="translate(458, 185)"><g id="ic_2_qun9ko16ex39-stroke" fill="none" stroke-linecap="round" stroke-linejoin="round" stroke-miterlimit="4" stroke="#1eabda" stroke-width="2"><g><path d="M 36.48 36.98C 36.827034 37.948929 37.002987 38.970806 37 40C 37.007744 44.304981 33.972198 48.015411 29.751007 48.860653C 25.529816 49.705898 21.299652 47.450336 19.649218 43.474289C 17.998783 39.498238 19.388142 34.910049 22.96706 32.517509C 26.545979 30.124971 31.316814 30.595018 34.360001 33.639999M 42.68 31.42C 47.276806 39.143959 45.083679 49.110222 37.669128 54.191025C 30.254576 59.271824 20.168573 57.719795 14.624529 50.644932C 9.080484 43.570068 9.985079 33.405525 16.691357 27.420881C 23.397633 21.436237 33.599201 21.689701 40 28M 11 57L 15.98 52.02M 40.02 52.02L 45 57M 42.860001 25.139999L 42.139999 17.360001L 48.5 11L 50.639999 17.360001L 57 19.5L 50.639999 25.860001L 42.860001 25.139999ZM 48 20L 28 40"></path></g></g></g><g id="g-root-tx_targetma_1463ry016evic-stroke" data-item-order="0" transform="translate(518, 191)"></g><g id="g-root-ic_char_zjf1vc16exvn-stroke" data-item-order="0" transform="translate(458, 269)"><g id="ic_char_zjf1vc16exvn-stroke" fill="none" stroke-linecap="round" stroke-linejoin="round" stroke-miterlimit="4" stroke="#3cc583" stroke-width="2"><g><path d="M 14.968 18.08C 14.967411 21.990593 18.137407 25.161064 22.048 25.161064C 25.958591 25.161064 29.128588 21.990593 29.128 18.08C 29.128588 14.169408 25.958591 10.998935 22.048 10.998935C 18.137407 10.998935 14.967411 14.169408 14.968 18.08M 33.063999 36.054001C 31.374105 31.496836 27.040302 28.461103 22.18 28.43C 17.315651 28.461662 12.976884 31.495855 11.278 36.054001ZM 52.368 41.026001L 37.026001 35.753998L 37.026001 19.528M 39.914001 51.723999C 32.527157 53.050991 25.19219 49.147934 22.166 42.279999M 33.540001 19.903999C 39.27343 18.648396 45.23819 20.584513 49.141201 24.968037C 53.044209 29.351563 54.277901 35.50013 52.368004 41.050003M 37.026001 35.753998L 39.961998 51.712002M 56.722 47.688L 43.349998 43.088001L 45.908001 57C 50.928207 56.073315 55.060413 52.515045 56.722 47.688ZM 16.827999 13.302C 20.148552 16.438192 24.563114 18.152775 29.130001 18.08"></path></g></g></g><g id="g-root-tx_customer_13z8jzs16ex3e-stroke" data-item-order="0" transform="translate(518, 281)"></g><g id="g-root-ic_bar_90vcqg16dhqh-stroke" data-item-order="0" transform="translate(458, 353)"><g id="ic_bar_90vcqg16dhqh-stroke" fill="none" stroke-linecap="round" stroke-linejoin="round" stroke-miterlimit="4" stroke="#92bd39" stroke-width="2"><g><path d="M 11.008 57L 57.007999 57M 19 48C 19 47.447716 18.552284 47 18 47L 14 47C 13.447716 47 13 47.447716 13 48L 13 57L 19 57ZM 31 38C 31 37.447716 30.552284 37 30 37L 26 37C 25.447716 37 25 37.447716 25 38L 25 57L 31 57ZM 43 42C 43 41.447716 42.552284 41 42 41L 38 41C 37.447716 41 37 41.447716 37 42L 37 57L 43 57ZM 55 28C 55 27.447716 54.552284 27 54 27L 50 27C 49.447716 27 49 27.447716 49 28L 49 57L 55 57ZM 13.007999 33C 13.008 34.656853 14.351146 36 16.007999 36C 17.664854 36 19.007999 34.656853 19.007999 33C 19.007999 31.343147 17.664854 30 16.007999 30C 14.351146 30 13.008 31.343147 13.008 33ZM 25.007999 23C 25.007999 24.656855 26.351147 26 28.008001 26C 29.664854 26 31.008001 24.656855 31.008001 23C 31.008001 21.343147 29.664854 20 28.008001 20C 26.351147 20 25.007999 21.343147 25.007999 23ZM 37.007999 27C 37.008003 28.656855 38.351147 30 40.008003 30C 41.664856 30 43.007999 28.656855 43.007999 27C 43.007999 25.343147 41.664856 24 40.008003 24C 38.351147 24 37.008003 25.343147 37.008003 27ZM 49.007999 14C 49.007999 15.656855 50.351147 17 52.007999 17C 53.664856 17 55.007999 15.656855 55.007999 14C 55.007999 12.343145 53.664856 11 52.007999 11C 50.351147 11 49.007999 12.343145 49.007999 14ZM 18.529999 30.9L 25.704 24.92M 30.854 23.948L 37.162003 26.049999M 49.608002 15.8L 42.09 24.57"></path></g></g></g><g id="g-root-tx_marketsi_mbpe0o16djbc-stroke" data-item-order="0" transform="translate(518, 365)"></g><g id="g-root-tx_business_1cy00u015tszy-stroke" data-item-order="0" transform="translate(68, 395)"></g><g id="g-root-ic_grow_93zq6016c4r3-stroke" data-item-order="0" transform="translate(458, 437)"><g id="ic_grow_93zq6016c4r3-stroke" fill="none" stroke-linecap="round" stroke-linejoin="round" stroke-miterlimit="4" stroke="#e0cb15" stroke-width="2"><g><path d="M 33.040001 11.5L 39.040001 11.5L 39.040001 17.5M 39.040001 11.5L 28.66 22C 27.879925 22.775448 26.620075 22.775448 25.84 22L 22.16 18.220001C 21.379925 17.444553 20.120075 17.444553 19.34 18.220001L 11.04 26.5M 45.274822 21.572094L 48.788116 25.984165C 48.788116 25.984165 50.033962 27.548729 48.469398 28.794577L 36.531773 38.300404C 36.531773 38.300404 34.967209 39.546249 33.721359 37.981689L 30.208067 33.569618C 30.208067 33.569618 28.962219 32.005051 30.526781 30.759205L 42.464409 21.253378C 42.464409 21.253378 44.028973 20.00753 45.274822 21.572094M 48.52 25.66L 45.52 22L 48.880001 19.26C 49.515358 18.581139 50.483479 18.326324 51.370712 18.604431C 52.25795 18.882542 52.907391 19.644386 53.041553 20.564457C 53.17572 21.484531 52.770874 22.400108 52.000004 22.920002ZM 52.279999 19.540001L 55.720001 16.860001L 54.459999 15.3M 56.959999 18.42L 55.720001 16.860001M 16.040001 44.5L 29.040001 44.5M 20.040001 56.5L 50.040001 56.5M 45.16 31.42C 49.39933 36.10965 50.243393 42.953804 47.27047 48.532909C 44.297546 54.112015 38.145855 57.228363 31.888979 56.324928C 25.632103 55.42149 20.613251 50.692215 19.34 44.5M 40.440002 35.18C 43.044083 37.803528 43.77919 41.752556 42.293552 45.137375C 40.807915 48.522198 37.403679 50.654423 33.709854 50.513725C 30.016029 50.373028 26.783852 47.988026 25.560001 44.5"></path></g></g></g><g id="g-root-tx_growthdr_mfg8jc16c366-stroke" data-item-order="0" transform="translate(518, 449)"></g><g id="g-root-ic_targ_1cwqzi016c3rh-stroke" data-item-order="0" transform="translate(458, 521)"><g id="ic_targ_1cwqzi016c3rh-stroke" fill="none" stroke-linecap="round" stroke-linejoin="round" stroke-miterlimit="4" stroke="#de8431" stroke-width="2"><g><path d="M 34 11L 34 18.046M 11 34L 18.046 34M 34 57L 34 49.953999M 57 34L 49.953999 34M 15 34C 15 44.493412 23.50659 53 34 53C 44.493412 53 53 44.493412 53 34C 53 23.50659 44.493412 15 34 15C 23.50659 15 15 23.50659 15 34M 44.467999 28.23L 38 34.702C 39.298607 38.014671 38.095718 41.784019 35.118286 43.732109C 32.140854 45.680202 28.205244 45.272892 25.689873 42.756336C 23.1745 40.23978 22.769043 36.303978 24.718533 33.327461C 26.668024 30.350946 30.437941 29.149836 33.75 30.450001L 40.218002 23.98L 44.515999 23.98ZM 30.125999 37.442001C 30.125933 37.928055 30.519941 38.322121 31.006001 38.322121C 31.492058 38.322121 31.886066 37.928055 31.886 37.442001C 31.886066 36.95594 31.492058 36.561878 31.006001 36.561878C 30.519941 36.561878 30.125933 36.95594 30.125999 37.442001"></path></g></g></g><g id="g-root-tx_keyplaye_23z2016c4qs-stroke" data-item-order="0" transform="translate(518, 533)"></g><g id="g-root-ic_2_qu0shk16anlv-stroke" data-item-order="0" transform="translate(458, 605)"><g id="ic_2_qu0shk16anlv-stroke" fill="none" stroke-linecap="round" stroke-linejoin="round" stroke-miterlimit="4" stroke="#e55753" stroke-width="2"><g><path d="M 43.007999 14L 49.007999 14L 49.007999 20M 12 28L 20.633999 21.962C 21.428761 21.406044 22.50787 21.500465 23.194 22.186001L 23.810001 22.802C 24.50103 23.493176 25.590389 23.583675 26.386 23.015999L 30.785999 19.880001C 31.513363 19.360348 32.497242 19.386477 33.195999 19.944L 35.795998 22.032C 36.5084 22.602013 37.516266 22.617645 38.246002 22.07L 49 14M 19 47C 19 46.447716 18.552284 46 18 46L 14 46C 13.447716 46 13 46.447716 13 47L 13 54L 19 54ZM 31 37C 31 36.447716 30.552284 36 30 36L 26 36C 25.447716 36 25 36.447716 25 37L 25 54L 31 54ZM 43 43C 43 42.447716 42.552284 42 42 42L 38 42C 37.447716 42 37 42.447716 37 43L 37 54L 43 54ZM 55 27C 55 26.447716 54.552284 26 54 26L 50 26C 49.447716 26 49 26.447716 49 27L 49 54L 55 54ZM 11.008 54L 57.007999 54"></path></g></g></g><g id="g-root-tx_globalan_144utrs16ap6q-stroke" data-item-order="0" transform="translate(518, 617)"></g></g></g><path id="w1qbzb954roky3" d="M65.283 12.757a.35.35 0 0 0 .584.157l5.203-5.141-6.183 3.523.396 1.461zm-2.216-11.7a.35.35 0 0 0-.522.305v3.111l3.276-1.868-2.754-1.548zm3.728 2.105l-4.25 2.421v2.445l6.391-3.644-2.141-1.222zm4.708 3.303a.35.35 0 0 0 0-.609l-1.592-.9-7.365 4.199v1.782a.35.35 0 0 0 .523.305l8.435-4.777z M44.542 2.513c0-.433.355-.783.792-.783s.792.35.792.783-.355.783-.792.783-.792-.35-.792-.783zm59.171 0c0-.433.355-.783.792-.783s.792.35.792.783-.355.783-.792.783-.792-.35-.792-.783zm-85.951 7.636h-1.27v-.487c-.276.201-.864.609-1.881.609-1.202 0-2.274-.794-2.137-2.078.118-1.106 1.153-1.584 1.848-1.727l2.17-.345c0-.539-.29-.956-1.064-1.006s-1.21.305-1.571 1.017l-1.124-.605c1.218-2.631 5.029-1.764 5.029.414v4.207zm-1.27-2.86c.006.396-.062 1.112-.819 1.59-.587.37-1.841.299-1.903-.395-.049-.555.461-.791.906-.898l1.816-.297zm72.662 2.86h-1.27v-.487c-.276.201-.864.609-1.881.609-1.202 0-2.274-.794-2.137-2.078.118-1.106 1.153-1.584 1.848-1.727l2.17-.345c0-.539-.29-.956-1.064-1.006s-1.21.305-1.571 1.017l-1.124-.605c1.218-2.631 5.029-1.764 5.029.414v4.207zm-1.27-2.86c.006.396-.062 1.112-.82 1.59-.587.37-1.841.299-1.903-.395-.049-.555.461-.791.906-.898l1.816-.297zM99.096 10.149H97.85v-8.45h1.246v4.895l2.68-2.559h1.738l-2.633 2.535 2.715 3.578h-1.556l-2.077-2.707-.867.844v1.863zm6.053-6.114h-1.255v6.113h1.255V4.035zm-59.2 0h-1.255v6.113h1.255V4.035zm5.584 6.113V1.697h1.255v2.695c.361-.346 1-.485 1.47-.485 1.452 0 2.477 1.082 2.457 2.448v3.792h-1.27v-3.68c0-.408-.214-1.339-1.315-1.339-.968 0-1.342.756-1.342 1.339v3.681h-1.255zm-4.76-4.894V4.039h.621a.45.45 0 0 0 .45-.45v-.855h1.251v1.305h1.309v1.215h-1.309v3.109c0 .293.105.664.648.664.365 0 .531-.035.736-.07v1.137s-.361.113-.857.113c-1.398 0-1.777-1.051-1.777-1.788V5.254h-1.071zM36.528 4.039h-1.394l2.191 6.106h1.125l1.234-3.918 1.238 3.918h1.129l2.188-6.106h-1.383l-1.359 3.93-1.256-3.93h-1.124l-1.242 3.957-1.348-3.957zM26.212 7.141c-.02 1.566 1.187 3.129 3.223 3.129 1.566 0 2.383-.918 2.734-1.719L31.172 8c-.315.399-.801 1.094-1.738 1.094-1.145 0-1.825-.781-1.891-1.52h4.625c.074-.284.148-.995-.03-1.559-.336-1.064-1.221-2.102-2.839-2.102s-3.088 1.152-3.088 3.227zm1.363-.75h3.348c-.055-.43-.566-1.301-1.623-1.301a1.79 1.79 0 0 0-1.725 1.301zm-8.758.75c.038 1.758 1.277 3.133 3.145 3.133 1.074 0 1.723-.477 1.961-.672v.547h1.242V1.703h-1.258v2.888c-.414-.36-1.062-.68-1.93-.68-1.91 0-3.198 1.473-3.16 3.23zm1.309-.08c0 1.119.723 1.978 1.836 1.978a1.88 1.88 0 0 0 1.94-1.904c0-1.371-1.011-1.99-1.972-1.99s-1.805.798-1.805 1.916zm76.683-.028C96.771 5.275 95.532 3.9 93.664 3.9c-1.074 0-1.723.477-1.961.672v-.547h-1.242v8.22h1.258V9.583c.414.36 1.063.68 1.93.68 1.91 0 3.198-1.473 3.16-3.23zm-1.309.08c0-1.119-.723-1.978-1.836-1.978a1.88 1.88 0 0 0-1.94 1.904c0 1.371 1.011 1.99 1.972 1.99S95.5 8.231 95.5 7.113zM106.441 10.173V4.036h1.254v.382c.361-.346 1-.485 1.47-.485 1.452 0 2.477 1.082 2.457 2.448v3.792h-1.27V6.492c0-.408-.214-1.339-1.315-1.339-.969 0-1.342.756-1.342 1.339v3.681h-1.254zm-30.383-.021V1.824h1.084l4.215 5.777V1.824h1.32v8.328h-1.094l-4.207-5.796v5.796h-1.319zM5.24 10.149H4V2.377h1.014l2.664 3.597 2.654-3.592h1.03v7.766h-1.256V4.762L7.678 8.068 5.24 4.742v5.407z" transform="translate(668, 770)" fill="#80808088" stroke="none"></path></svg>